<?xml version="1.0" encoding="UTF-8"?>
<!DOCTYPE svg PUBLIC "-//W3C//DTD SVG 1.1//EN" "http://www.w3.org/Graphics/SVG/1.1/DTD/svg11.dtd">
<!-- Creator: CorelDRAW 2020 (64-Bit) -->
<svg xmlns="http://www.w3.org/2000/svg" xml:space="preserve" width="4.8in" height="2.88667in" version="1.1" style="shape-rendering:geometricPrecision; text-rendering:geometricPrecision; image-rendering:optimizeQuality; fill-rule:evenodd; clip-rule:evenodd"
viewBox="0 0 4800 2886.67"
 xmlns:xlink="http://www.w3.org/1999/xlink"
 xmlns:xodm="http://www.corel.com/coreldraw/odm/2003">
 <defs>
  <style type="text/css">
   <![CDATA[
    .fil4 {fill:none}
    .fil3 {fill:url(#id1)}
    .fil2 {fill:url(#id2)}
    .fil1 {fill:url(#id3)}
    .fil0 {fill:url(#id4);fill-opacity:0.501961}
   ]]>
  </style>
   <clipPath id="id0">
    <path d="M-0 0l4800 0 0 2886.67 -4800 0 0 -2886.67z"/>
   </clipPath>
  <linearGradient id="id1" gradientUnits="userSpaceOnUse" x1="5019.19" y1="861.79" x2="5368.21" y2="1210.8">
   <stop offset="0" style="stop-opacity:1; stop-color:#FE5858"/>
   <stop offset="1" style="stop-opacity:1; stop-color:#EE9617"/>
  </linearGradient>
  <linearGradient id="id2" gradientUnits="objectBoundingBox" xlink:href="#id1" x1="26.8606%" y1="39.4711%" x2="73.1396%" y2="60.529%">
  </linearGradient>
  <linearGradient id="id3" gradientUnits="userSpaceOnUse" xlink:href="#id1" x1="5488.15" y1="313.73" x2="4199.54" y2="-557.39">
  </linearGradient>
  <linearGradient id="id4" gradientUnits="userSpaceOnUse" xlink:href="#id1" x1="3877.4" y1="-650.07" x2="5810.29" y2="406.41">
  </linearGradient>
 </defs>
 <g id="Layer_x0020_1">
  <metadata id="CorelCorpID_0Corel-Layer"/>
  <g>
  </g>
  <g style="clip-path:url(#id0)">
   <g>
    <path class="fil0" d="M6977.6 -2255.59l0 0c284.37,284.37 284.37,749.69 -0,1034.06l-3233.46 3233.46c-284.37,284.37 -749.69,284.37 -1034.06,0l-0 -0c-284.37,-284.37 -284.37,-749.69 0,-1034.06l3233.46 -3233.46c284.37,-284.37 749.7,-284.37 1034.06,0z"/>
    <path class="fil1" d="M6862.63 -2140.62l0 0c220.98,220.98 220.98,582.59 0,803.57l-3234.01 3234c-220.98,220.99 -582.59,220.98 -803.57,0l-0 0c-220.98,-220.98 -220.98,-582.59 0,-803.57l3234 -3234c220.98,-220.98 582.59,-220.98 803.57,0z"/>
    <path class="fil2" d="M4266.7 -1010.04l0.01 0c85.18,85.19 85.18,224.57 0,309.76l-1533.06 1533.06c-85.19,85.18 -224.57,85.18 -309.76,-0l-0.01 -0c-85.18,-85.19 -85.19,-224.57 0,-309.76l1533.06 -1533.06c85.19,-85.19 224.57,-85.19 309.76,0z"/>
    <path class="fil3" d="M6415.41 -185.42l0 0c95.98,95.98 95.98,253.04 0,349.02l-2094.41 2094.41c-95.98,95.98 -253.04,95.98 -349.02,0l0 0c-95.98,-95.98 -95.98,-253.04 0,-349.02l2094.41 -2094.41c95.98,-95.98 253.04,-95.98 349.02,0z"/>
    <path class="fil2" d="M2410.04 1986.62l0.01 0c85.18,85.19 85.18,224.57 0,309.76l-1533.06 1533.06c-85.19,85.18 -224.57,85.18 -309.76,-0l-0.01 -0c-85.18,-85.19 -85.19,-224.57 0,-309.76l1533.06 -1533.06c85.19,-85.19 224.57,-85.19 309.76,0z"/>
   </g>
  </g>
  <polygon class="fil4" points="-0,0 4800,0 4800,2886.67 -0,2886.67 "/>
 </g>
</svg>
