<?xml version="1.0" encoding="UTF-8"?>
<!DOCTYPE svg PUBLIC "-//W3C//DTD SVG 1.1//EN" "http://www.w3.org/Graphics/SVG/1.1/DTD/svg11.dtd">
<!-- Creator: CorelDRAW 2020 (64-Bit) -->
<svg xmlns="http://www.w3.org/2000/svg" xml:space="preserve" width="4.8in" height="2.88667in" version="1.1" style="shape-rendering:geometricPrecision; text-rendering:geometricPrecision; image-rendering:optimizeQuality; fill-rule:evenodd; clip-rule:evenodd"
viewBox="0 0 3428.57 2061.9"
 xmlns:xlink="http://www.w3.org/1999/xlink"
 xmlns:xodm="http://www.corel.com/coreldraw/odm/2003">
 <defs>
  <style type="text/css">
   <![CDATA[
    .fil4 {fill:none}
    .fil1 {fill:#E6E6E6}
    .fil0 {fill:white}
    .fil3 {fill:url(#id1)}
    .fil2 {fill:url(#id2)}
   ]]>
  </style>
   <clipPath id="id0">
    <path d="M-0 0l3428.57 0 0 2061.9 -3428.57 0 0 -2061.9z"/>
   </clipPath>
  <linearGradient id="id1" gradientUnits="userSpaceOnUse" x1="-387.5" y1="215.4" x2="1581.39" y2="215.4">
   <stop offset="0" style="stop-opacity:1; stop-color:#EE9617"/>
   <stop offset="1" style="stop-opacity:1; stop-color:#FE5858"/>
  </linearGradient>
  <linearGradient id="id2" gradientUnits="userSpaceOnUse" x1="-2.38" y1="1335.9" x2="4247.97" y2="1335.9">
   <stop offset="0" style="stop-opacity:1; stop-color:#FE5858"/>
   <stop offset="1" style="stop-opacity:1; stop-color:#EE9617"/>
  </linearGradient>
 </defs>
 <g id="Layer_x0020_1">
  <metadata id="CorelCorpID_0Corel-Layer"/>
  <polygon class="fil0" points="-0,0 3428.57,0 3428.57,2061.9 -0,2061.9 "/>
  <g style="clip-path:url(#id0)">
   <g id="_1950723879104">
    <g>
     <path id="1" class="fil1" d="M-45.63 2135.5c182.77,-194.29 326.7,-249.72 501.82,-317.14 85.74,-33.01 179.45,-69.1 289.72,-127.82 58.43,-31.12 309.35,-152.75 591.43,-237.04 162.82,-48.65 337.35,-85.3 494.65,-86.21 334.51,-1.92 592.4,-363.63 786.7,-636.15 27.11,-38.02 53.03,-74.38 78.88,-109.34 106.09,-143.46 281.97,-243.66 477.5,-298.51 208.88,-58.6 442.25,-65.93 636.49,-19.05 14.18,3.42 28.4,10.17 42.49,19.96 79.82,55.48 217.11,268.32 318.37,519.54 100.96,250.45 169.62,543.98 115.97,766.25 -14.41,59.71 -37.39,114.4 -70.52,162.06 -142.96,205.66 -439.17,429.51 -1088.37,545.48 -634.79,113.4 -1615.91,125.62 -3139.8,-82.5l-114.28 -15.61 78.93 -83.91zm43.25 40.69c264.29,-280.95 446.02,-257.49 776.19,-433.34 89.65,-47.75 644.13,-313.89 1058.41,-316.27 414.29,-2.38 703.5,-486.11 913.02,-769.44 203.84,-275.64 697.86,-380.8 1052.38,-295.24 138.09,33.33 642.86,985.71 371.43,1376.19 -271.43,390.48 -1138.09,852.38 -4171.43,438.1z"/>
     <path id="2" class="fil2" d="M-2.38 2176.19c264.29,-280.95 446.02,-257.49 776.19,-433.34 89.65,-47.75 644.13,-313.89 1058.41,-316.27 414.29,-2.38 703.5,-486.11 913.02,-769.44 203.84,-275.64 697.86,-380.8 1052.38,-295.24 138.09,33.33 642.86,985.71 371.43,1376.19 -271.43,390.48 -1138.09,852.38 -4171.43,438.1z"/>
    </g>
    <g>
     <path class="fil1" d="M-309.52 871.43c0,0 480.96,-52.38 676.19,-228.57 195.24,-176.19 319.05,-257.14 485.71,-290.48 166.66,-33.33 661.9,-57.15 723.81,-409.52 61.91,-352.38 -438.09,-461.91 -1009.52,-328.57 -571.43,133.34 -914.29,247.62 -947.62,533.34 -33.33,285.71 71.43,723.81 71.43,723.81zm715.95 -184.39c-209.48,189.04 -708.01,243.29 -709.44,243.45l-52.24 5.83 -12.17 -51.17c-0.31,-1.29 -107.15,-448.05 -72.59,-744.27 19.33,-165.69 124.57,-279.75 304.58,-370.08 167.04,-83.83 399.26,-146.89 688.62,-214.41 251.65,-58.72 490.92,-71.6 678.23,-38.7 102.79,18.06 191.24,50.23 259.33,96.56l0.23 0c73.08,49.72 122.49,115.22 141.48,196.61 10.18,43.63 11.32,91.07 2.33,142.24 -61.17,348.17 -469.22,410.56 -692.54,444.7 -30.47,4.66 -57.13,8.73 -78.23,12.96 -76.49,15.3 -143.08,41.48 -212.84,83.99 -72.47,44.16 -149.6,106.45 -244.74,192.3z"/>
     <path id="1" class="fil3" d="M-309.52 871.43c0,0 480.96,-52.38 676.19,-228.57 195.24,-176.19 319.05,-257.14 485.71,-290.48 166.66,-33.33 661.9,-57.15 723.81,-409.52 61.91,-352.38 -438.09,-461.91 -1009.52,-328.57 -571.43,133.34 -914.29,247.62 -947.62,533.34 -33.33,285.71 71.43,723.81 71.43,723.81z"/>
    </g>
   </g>
  </g>
  <polygon class="fil4" points="-0,0 3428.57,0 3428.57,2061.9 -0,2061.9 "/>
 </g>
</svg>
